# xmcd
#
# Track frame offsets:
# 150
# 13081
# 28475
# 45407
# 61101
# 77038
# 90934
# 102637
# 123586
# 137262
# 150802
# 161945
# 180313
# 193471
# 207005
# 220516
# 239235
# 254748
#
# Disc length: 3574 seconds
#
#
# Revision: 0
# Processed by: cddbd v1.5.2PL0 Copyright (c) Steve Scherf et al.
# Submitted via: FreeRIP 2.96 
#
DISCID=f60df412
DTITLE=Various Artist - Jazz For Lovers CD2
DYEAR=1998
DGENRE=Jazz
TTITLE0=Don Byas - Laura
TTITLE1=Charlie Parker, Miles Davis - Embraceable You
TTITLE2=Duke Ellington Orchestra - Sophisticated Lady
TTITLE3=Billie Holiday - Yesterdays
TTITLE4=Tommy Dorsey Orchestra - Liebestraum
TTITLE5=Buddy Tate - Blue And Sentimental
TTITLE6=John Kirby Orchestra - Serenade
TTITLE7=Johnny Hodges - Flamingo
TTITLE8=Roy Eldridge Orchestra - I Surrender Dear
TTITLE9=Chu Berry - A Ghost Of A Chance
TTITLE10=Teddy Wilson - Cheek To Cheek
TTITLE11=Art Tatum - Where Or When
TTITLE12=Coleman Hawkins, Hank Jones - I Love You
TTITLE13=Ivie Anderson, Duke Ellington - Solitude
TTITLE14=Nat King Cole - Smoke Gets In Your Eyes
TTITLE15=Sidney Bechet - Summertime
TTITLE16=Glenn Miller Orchestra - Moonlight Serenade
TTITLE17=Sarah Vaughan - Don't Worry 'Bout Me
EXTD=
EXTT0=
EXTT1=
EXTT2=
EXTT3=
EXTT4=
EXTT5=
EXTT6=
EXTT7=
EXTT8=
EXTT9=
EXTT10=
EXTT11=
EXTT12=
EXTT13=
EXTT14=
EXTT15=
EXTT16=
EXTT17=
PLAYORDER=
